<svg width="293" height="123" viewBox="0 0 293 123" fill="none" xmlns="http://www.w3.org/2000/svg">
<path d="M262.867 1C278.869 1 291.841 13.9719 291.841 29.9736V73.9443C291.841 89.9461 278.869 102.918 262.867 102.918H234.253C230.72 112.034 215.743 118.74 208.492 121.001C213.202 114.1 215.06 107.092 215.602 102.918H30.1338C14.1321 102.918 1.16023 89.946 1.16016 73.9443V29.9736C1.16028 13.972 14.1322 1.00011 30.1338 1H262.867Z" fill="white"/>
<path d="M291.841 29.9736H292.746V29.9736L291.841 29.9736ZM291.841 73.9443L292.746 73.9443V73.9443H291.841ZM234.253 102.918V102.013H233.633L233.409 102.591L234.253 102.918ZM208.492 121.001L207.744 120.491L206.277 122.64L208.762 121.865L208.492 121.001ZM215.602 102.918L216.499 103.034L216.632 102.013H215.602V102.918ZM30.1338 102.918L30.1338 103.823H30.1338V102.918ZM1.16016 73.9443H0.254724V73.9443L1.16016 73.9443ZM1.16016 29.9736L0.254724 29.9736V29.9736H1.16016ZM30.1338 1V0.0945676H30.1338L30.1338 1ZM262.867 1V1.90543C278.369 1.90543 290.935 14.472 290.935 29.9736L291.841 29.9736L292.746 29.9736C292.746 13.4719 279.369 0.0945676 262.867 0.0945676V1ZM291.841 29.9736H290.935V73.9443H291.841H292.746V29.9736H291.841ZM291.841 73.9443L290.935 73.9443C290.935 89.446 278.369 102.013 262.867 102.013V102.918V103.823C279.369 103.823 292.746 90.4461 292.746 73.9443L291.841 73.9443ZM262.867 102.918V102.013H234.253V102.918V103.823H262.867V102.918ZM234.253 102.918L233.409 102.591C231.755 106.857 227.351 110.681 222.296 113.757C217.277 116.81 211.79 119.024 208.223 120.137L208.492 121.001L208.762 121.865C212.445 120.717 218.072 118.447 223.237 115.304C228.367 112.182 233.218 108.095 235.097 103.245L234.253 102.918ZM208.492 121.001L209.24 121.511C214.044 114.473 215.943 107.324 216.499 103.034L215.602 102.918L214.704 102.802C214.177 106.861 212.36 113.728 207.744 120.491L208.492 121.001ZM215.602 102.918V102.013H30.1338V102.918V103.823H215.602V102.918ZM30.1338 102.918L30.1338 102.013C14.6322 102.012 2.06566 89.4459 2.06559 73.9443L1.16016 73.9443L0.254724 73.9443C0.254799 90.4461 13.6321 103.823 30.1338 103.823L30.1338 102.918ZM1.16016 73.9443H2.06559V29.9736H1.16016H0.254724V73.9443H1.16016ZM1.16016 29.9736L2.06559 29.9736C2.06571 14.4721 14.6322 1.90554 30.1338 1.90543L30.1338 1L30.1338 0.0945676C13.6321 0.0946816 0.254851 13.4719 0.254724 29.9736L1.16016 29.9736ZM30.1338 1V1.90543H262.867V1V0.0945676H30.1338V1Z" fill="#FDD950"/>
</svg>
