<svg width="774" height="813" viewBox="0 0 774 813" fill="none" xmlns="http://www.w3.org/2000/svg">
<circle cx="387.006" cy="386.5" r="386.5" fill="url(#paint0_radial_553_6933)"/>
<path d="M191.258 706.157C231.593 656.335 278.045 694.982 268.126 720.531C314.411 712.547 323.871 753.796 306.147 770.829C251.872 771.894 80.5059 767.638 80.5059 767.638C80.5059 767.638 89.5944 706.157 137.534 734.9C137.534 683.163 173.35 694.181 191.258 706.157Z" fill="#E0F3F8"/>
<path d="M492.258 500.157C532.593 450.335 579.045 488.982 569.126 514.531C615.411 506.547 624.871 547.796 607.147 564.829C552.872 565.894 381.506 561.638 381.506 561.638C381.506 561.638 390.594 500.157 438.534 528.9C438.534 477.163 474.35 488.181 492.258 500.157Z" fill="#E0F3F8"/>
<path d="M527.458 561.639C512.909 519.608 453.503 543.882 461.385 571.798C434.107 558.448 416.933 586.923 429.932 599.87C469.738 600.679 595.419 597.445 595.419 597.445C595.419 597.445 604.443 567.55 570.497 579.081C570.497 539.756 540.592 552.536 527.458 561.639Z" fill="white" fill-opacity="0.9"/>
<path d="M210.064 491.128C185.664 459.928 157.563 484.13 163.563 500.129C135.563 495.13 129.841 520.961 140.563 531.628C173.396 532.295 277.062 529.63 277.062 529.63C277.062 529.63 271.564 491.128 242.564 509.128C242.564 476.728 220.897 483.628 210.064 491.128Z" fill="white" fill-opacity="0.9"/>
<path d="M525.064 772.128C500.664 740.928 472.563 765.13 478.563 781.129C450.563 776.13 444.841 801.961 455.563 812.628C488.396 813.295 592.062 810.63 592.062 810.63C592.062 810.63 586.564 772.128 557.564 790.128C557.564 757.728 535.897 764.628 525.064 772.128Z" fill="#DEF3F8"/>
<defs>
<radialGradient id="paint0_radial_553_6933" cx="0" cy="0" r="1" gradientUnits="userSpaceOnUse" gradientTransform="translate(387.006 386.5) rotate(90) scale(386.5)">
<stop stop-color="#A3DCEB"/>
<stop offset="1" stop-color="white"/>
</radialGradient>
</defs>
</svg>
