<svg width="774" height="773" viewBox="0 0 774 773" fill="none" xmlns="http://www.w3.org/2000/svg">
<circle cx="387.006" cy="386.5" r="386.5" fill="url(#paint0_radial_553_6929)"/>
<path d="M435.297 625.657C410.821 595.428 382.632 618.877 388.651 634.378C360.563 629.534 354.823 654.561 365.579 664.896C398.515 665.542 502.506 662.96 502.506 662.96C502.506 662.96 496.991 625.657 467.899 643.097C467.899 611.705 446.164 618.39 435.297 625.657Z" fill="white" fill-opacity="0.9"/>
<path d="M200.715 625.657C225.191 595.428 253.38 618.877 247.361 634.378C275.448 629.534 281.189 654.561 270.433 664.896C237.497 665.542 133.506 662.96 133.506 662.96C133.506 662.96 139.021 625.657 168.113 643.097C168.113 611.705 189.847 618.39 200.715 625.657Z" fill="white" fill-opacity="0.9"/>
<path d="M464.715 645.657C489.191 615.428 517.38 638.877 511.361 654.378C539.448 649.534 545.189 674.561 534.433 684.896C501.497 685.542 397.506 682.96 397.506 682.96C397.506 682.96 403.021 645.657 432.113 663.097C432.113 631.705 453.847 638.39 464.715 645.657Z" fill="#E0F3F8"/>
<defs>
<radialGradient id="paint0_radial_553_6929" cx="0" cy="0" r="1" gradientUnits="userSpaceOnUse" gradientTransform="translate(387.006 386.5) rotate(90) scale(386.5)">
<stop stop-color="#A3DCEB"/>
<stop offset="1" stop-color="white"/>
</radialGradient>
</defs>
</svg>
