<svg width="774" height="773" viewBox="0 0 774 773" fill="none" xmlns="http://www.w3.org/2000/svg">
<circle cx="387.006" cy="386.5" r="386.5" fill="url(#paint0_radial_553_6932)"/>
<path d="M168.715 664.657C193.191 634.428 221.38 657.877 215.361 673.378C243.448 668.534 249.189 693.561 238.433 703.896C205.497 704.542 101.506 701.96 101.506 701.96C101.506 701.96 107.021 664.657 136.113 682.097C136.113 650.705 157.847 657.39 168.715 664.657Z" fill="white" fill-opacity="0.9"/>
<path d="M436.297 662.657C411.821 632.428 383.632 655.877 389.651 671.378C361.563 666.534 355.823 691.561 366.579 701.896C399.515 702.542 503.506 699.96 503.506 699.96C503.506 699.96 497.991 662.657 468.899 680.097C468.899 648.705 447.164 655.39 436.297 662.657Z" fill="white" fill-opacity="0.9"/>
<path d="M432.715 684.657C457.191 654.428 485.38 677.877 479.361 693.378C507.448 688.534 513.189 713.561 502.433 723.896C469.497 724.542 365.506 721.96 365.506 721.96C365.506 721.96 371.021 684.657 400.113 702.097C400.113 670.705 421.847 677.39 432.715 684.657Z" fill="#E0F3F8"/>
<path d="M112.506 697.001C131.506 670.001 163.506 687.001 163.506 705.501C188.006 702.5 189.005 723.5 180.505 731C147.569 731.646 50.5059 731 50.5059 731C50.5059 731 50.0206 699.658 79.1123 717.098C79.1123 685.706 101.639 689.735 112.506 697.001Z" fill="#E0F3F8"/>
<defs>
<radialGradient id="paint0_radial_553_6932" cx="0" cy="0" r="1" gradientUnits="userSpaceOnUse" gradientTransform="translate(387.006 386.5) rotate(90) scale(386.5)">
<stop stop-color="#A3DCEB"/>
<stop offset="1" stop-color="white"/>
</radialGradient>
</defs>
</svg>
