<svg width="290" height="139" viewBox="0 0 290 139" fill="none" xmlns="http://www.w3.org/2000/svg">
<path d="M256.506 1C274.179 1 288.506 15.3269 288.506 33V85C288.506 102.673 274.179 117 256.506 117H102.753C99.7964 127.337 87.4772 134.937 81.5059 137.505C85.3731 129.693 86.9108 121.761 87.3672 117H33.5059C15.8327 117 1.50586 102.673 1.50586 85V33C1.50586 15.3269 15.8327 1 33.5059 1H256.506Z" fill="white"/>
<path d="M288.506 85L289.253 85V85H288.506ZM256.506 117L256.506 117.748L256.506 117ZM102.753 117V116.252H102.189L102.034 116.794L102.753 117ZM81.5059 137.505L80.8359 137.173L79.9343 138.994L81.8012 138.192L81.5059 137.505ZM87.3672 117L88.1113 117.071L88.1899 116.252H87.3672V117ZM1.50586 33L0.758291 33V33H1.50586ZM33.5059 1L33.5059 0.252431L33.5059 1ZM256.506 1V1.74757C273.766 1.74757 287.758 15.7398 287.758 33H288.506H289.253C289.253 14.914 274.592 0.252431 256.506 0.252431V1ZM288.506 33H287.758V85H288.506H289.253V33H288.506ZM288.506 85L287.758 85C287.758 102.26 273.766 116.252 256.506 116.252L256.506 117L256.506 117.748C274.592 117.748 289.253 103.086 289.253 85L288.506 85ZM256.506 117V116.252H102.753V117V117.748H256.506V117ZM102.753 117L102.034 116.794C100.615 121.757 96.9236 126.123 92.78 129.593C88.6455 133.055 84.1365 135.56 81.2105 136.818L81.5059 137.505L81.8012 138.192C84.8466 136.882 89.4829 134.304 93.7399 130.739C97.9879 127.182 101.935 122.58 103.472 117.206L102.753 117ZM81.5059 137.505L82.1758 137.837C86.0932 129.924 87.6486 121.898 88.1113 117.071L87.3672 117L86.623 116.929C86.1729 121.624 84.6531 129.463 80.8359 137.173L81.5059 137.505ZM87.3672 117V116.252H33.5059V117V117.748H87.3672V117ZM33.5059 117V116.252C16.2456 116.252 2.25343 102.26 2.25343 85H1.50586H0.758291C0.758291 103.086 15.4199 117.748 33.5059 117.748V117ZM1.50586 85H2.25343V33H1.50586H0.758291V85H1.50586ZM1.50586 33L2.25343 33C2.25343 15.7398 16.2456 1.74757 33.5059 1.74757L33.5059 1L33.5059 0.252431C15.4199 0.252431 0.758292 14.914 0.758291 33L1.50586 33ZM33.5059 1V1.74757H256.506V1V0.252431H33.5059V1Z" fill="#FDD950"/>
</svg>
