<svg width="294" height="155" viewBox="0 0 294 155" fill="none" xmlns="http://www.w3.org/2000/svg">
<path d="M263.213 1C279.215 1.00002 292.186 13.972 292.187 29.9736V101.218C292.187 117.22 279.215 130.191 263.213 130.191H234.599C231.066 141.747 216.087 150.246 208.837 153.112C213.547 144.366 215.405 135.483 215.946 130.191H30.4795C14.4777 130.191 1.50586 117.22 1.50586 101.218V29.9736C1.50605 13.972 14.4778 1.00004 30.4795 1H263.213Z" fill="white"/>
<path d="M263.213 1L263.213 0.0945676H263.213V1ZM292.187 29.9736L293.092 29.9736L293.092 29.9736L292.187 29.9736ZM234.599 130.191V129.286H233.929L233.733 129.927L234.599 130.191ZM208.837 153.112L208.04 152.683L206.864 154.866L209.17 153.954L208.837 153.112ZM215.946 130.191L216.847 130.284L216.949 129.286H215.946V130.191ZM30.4795 130.191L30.4795 131.097H30.4795V130.191ZM1.50586 29.9736L0.600427 29.9736V29.9736H1.50586ZM30.4795 1L30.4795 0.0945676L30.4795 0.0945676L30.4795 1ZM263.213 1L263.213 1.90543C278.714 1.90545 291.281 14.4721 291.281 29.9736L292.187 29.9736L293.092 29.9736C293.092 13.472 279.715 0.0945841 263.213 0.0945676L263.213 1ZM292.187 29.9736H291.281V101.218H292.187H293.092V29.9736H292.187ZM292.187 101.218H291.281C291.281 116.72 278.715 129.286 263.213 129.286V130.191V131.097C279.715 131.097 293.092 117.72 293.092 101.218H292.187ZM263.213 130.191V129.286H234.599V130.191V131.097H263.213V130.191ZM234.599 130.191L233.733 129.927C232.047 135.441 227.593 140.311 222.559 144.193C217.542 148.063 212.061 150.864 208.504 152.27L208.837 153.112L209.17 153.954C212.864 152.494 218.497 149.613 223.665 145.627C228.816 141.654 233.618 136.498 235.465 130.456L234.599 130.191ZM208.837 153.112L209.634 153.542C214.413 144.667 216.297 135.663 216.847 130.284L215.946 130.191L215.046 130.099C214.513 135.303 212.681 144.064 208.04 152.683L208.837 153.112ZM215.946 130.191V129.286H30.4795V130.191V131.097H215.946V130.191ZM30.4795 130.191L30.4795 129.286C14.9778 129.286 2.41129 116.719 2.41129 101.218H1.50586H0.600427C0.600427 117.72 13.9777 131.097 30.4795 131.097L30.4795 130.191ZM1.50586 101.218H2.41129V29.9736H1.50586H0.600427V101.218H1.50586ZM1.50586 29.9736L2.41129 29.9736C2.41148 14.4721 14.9779 1.90547 30.4795 1.90543L30.4795 1L30.4795 0.0945676C13.9778 0.0946052 0.600622 13.472 0.600427 29.9736L1.50586 29.9736ZM30.4795 1V1.90543H263.213V1V0.0945676H30.4795V1Z" fill="#FDD950"/>
</svg>
